<svg xmlns="http://www.w3.org/2000/svg" viewBox="0 0 2159.64 1448.56"><defs><style>.cls-1{fill:#fff;}</style></defs><title>Asset 1</title><g id="Layer_2" data-name="Layer 2"><g id="Layer_1-2" data-name="Layer 1"><path class="cls-1" d="M116.47,91.83l925.46,748.25a51.66,51.66,0,0,0,64.5.36l937.28-740.37c38.36-30.3,17.08-92-31.8-92.19L149.17,0C100.36-.21,78.52,61.14,116.47,91.83Z"/><path class="cls-1" d="M2075.4,195.54l-596,484.28a51.66,51.66,0,0,0,.15,80.31l596,480.56c33.8,27.25,84.09,3.19,84.09-40.21V235.63C2159.64,192.13,2109.16,168.11,2075.4,195.54Z"/><path class="cls-1" d="M110.62,1357.18,772.54,806.82a51.64,51.64,0,0,1,60-4.32L1053,937.61a51.65,51.65,0,0,0,54,0l220.85-135.36a51.68,51.68,0,0,1,59.54,3.92L2056.59,1349c37.71,30.58,16.22,91.57-32.33,91.77l-1880.4,7.81C95.41,1448.76,73.37,1388.15,110.62,1357.18Z"/><path class="cls-1" d="M84.05,193.8,687.62,679.6a51.66,51.66,0,0,1-.3,80.73L83.75,1238.77C49.89,1265.61,0,1241.49,0,1198.29V234.05C0,190.66,50.25,166.6,84.05,193.8Z"/></g></g></svg>